<svg xmlns="http://www.w3.org/2000/svg" viewBox="0 0 80 80"><g id="Layer_2" data-name="Layer 2"><g id="Layer_1-2" data-name="Layer 1"><path d="M79 15.7a1 1 0 001-1V7.9a1 1 0 00-1-1H61.1V1a1 1 0 00-1-1h-8.3a1 1 0 00-1 1v5.9h-5.4V1a1 1 0 00-1-1H36a1 1 0 00-1 1v5.9h-5.6a1 1 0 00-1 1v6.7a1 1 0 001 1h2V78h-17V60.5a13.3 13.3 0 10-2 0V78H1a1 1 0 100 2h78a1 1 0 000-2h-2.1V15.6zM2 47.3a11.3 11.3 0 1112.3 11.2v-4l4.5-4.4a1 1 0 10-1.4-1.4l-3 3v-5a1 1 0 00-2 0v5l-3.1-3A1 1 0 107.8 50l4.5 4.4v4A11.3 11.3 0 012 47.3zM52.8 2h6.3v4.9h-6.3zM37 2h6.3v4.9H37zm-6.6 6.9H78v4.8H30.4zM60 78H48.4V57.3H60zm15 0H62V56.3a1 1 0 00-1-1H47.4a1 1 0 00-1 1V78h-13V15.6H75z"/><path d="M58.2 48.8H66a1 1 0 001-1v-6.3a4.8 4.8 0 00-4.8-4.8H62a4.8 4.8 0 00-4.8 4.8v6.3a1 1 0 001 1zm1-7.3a2.8 2.8 0 012.8-2.8h.2a2.8 2.8 0 012.8 2.8v5.3h-5.8zM58.2 32.2H66a1 1 0 001-1v-6.4a4.8 4.8 0 00-4.8-4.7H62a4.8 4.8 0 00-4.8 4.7v6.4a1 1 0 001 1zm1-7.4a2.8 2.8 0 012.8-2.7h.2a2.8 2.8 0 012.8 2.7v5.4h-5.8zM42.4 48.8h7.8a1 1 0 001-1v-6.3a4.8 4.8 0 00-4.8-4.8h-.2a4.8 4.8 0 00-4.8 4.8v6.3a1 1 0 001 1zm1-7.3a2.8 2.8 0 012.8-2.8h.2a2.8 2.8 0 012.8 2.8v5.3h-5.8zM42.4 32.2h7.8a1 1 0 001-1v-6.4a4.8 4.8 0 00-4.8-4.7h-.2a4.8 4.8 0 00-4.8 4.7v6.4a1 1 0 001 1zm1-7.4a2.8 2.8 0 012.8-2.7h.2a2.8 2.8 0 012.8 2.7v5.4h-5.8z"/></g></g></svg>