<svg version="1.1" id="Layer_1" xmlns="http://www.w3.org/2000/svg" x="0" y="0" viewBox="3 -3 30 30" xml:space="preserve"><path d="M5.5 20.5a.5.5 0 01-.4-.7l1.8-3.4-1.3-1.1-.1-.2h-.1A8.4 8.4 0 013 9V9C3 3.8 7.7-.5 13.5-.5S24 3.8 24 9c0 .3-.2.5-.5.5-4.7 0-8.5 3-8.5 6.5 0 .6.1 1.2.3 1.7a.5.5 0 01-.2.7l-.4.1H14c-1.5 0-3-.2-4.4-.7l-3.8 2.6-.3.1zm.7-6c.6.5 1 1 1.6 1.3.2.1.3.4.2.6l-1.1 2 2.3-1.6h.5c1.3.5 2.8.8 4.2.7H14.2L14 16c0-4 4-7.3 9-7.5-.3-4.4-4.4-8-9.5-8C8.3.5 4 4.3 4 9V9.3c0 1.8.7 3.5 2 5l-.2.5.4-.4z"/><path d="M29.5 24.5h-.2L26.4 23a12.1 12.1 0 01-2.9.4c-5.2 0-9.5-3.4-9.5-7.5s4.3-7.5 9.5-7.5S33 11.9 33 16c0 2.3-1.4 4.5-3.7 6l.7 1.8a.5.5 0 01-.5.7zm-3-2.4h.2l2 1-.5-1.2c0-.3 0-.5.3-.6C30.7 20 32 18 32 16c0-3.6-3.8-6.5-8.5-6.5S15 12.5 15 16s3.8 6.5 8.5 6.5a11 11 0 003-.4z"/></svg>