<svg xmlns="http://www.w3.org/2000/svg" viewBox="0 0 54 54"><g id="Layer_2" data-name="Layer 2"><g id="Layer_1-2" data-name="Layer 1"><path d="M11 20h32a1 1 0 001-.7 1 1 0 00-.4-1L34 10.4V1a1 1 0 00-1-1H21a1 1 0 00-1 1v9.5l-9.6 7.7A1 1 0 0011 20zm10.6-8.2a1 1 0 00.4-.8V2h10v9a1 1 0 00.4.8l7.8 6.2H13.8zM21 50h12a1 1 0 001-1v-6a1 1 0 00-1-1H21a1 1 0 00-1 1v6a1 1 0 001 1zm1-6h10v4H22zM21 40h2a1 1 0 000-2h-2a1 1 0 000 2zM31 40h2a1 1 0 000-2h-2a1 1 0 000 2z"/><path d="M53 34H1a1 1 0 000 2h1v17a1 1 0 001 1h48a1 1 0 001-1V36h1a1 1 0 000-2zm-17 2v16H18V36zM4 36h12v16H4zm46 16H38V36h12z"/></g></g></svg>