<svg version="1.1" id="Layer_1" xmlns="http://www.w3.org/2000/svg" x="0" y="0" viewBox="0 0 30 30" xml:space="preserve"><path d="M26.5 24h-23a3 3 0 01-3-3V3a3 3 0 013-3h23a3 3 0 013 3v18a3 3 0 01-3 3zM3.5 1a2 2 0 00-2 2v18c0 1.1.9 2 2 2h23a2 2 0 002-2V3a2 2 0 00-2-2h-23zM23 30H6c-.3 0-.5-.2-.5-.5V29a3 3 0 013-3h12a3 3 0 013 3v.5c0 .3-.2.5-.5.5zM6.5 29h16a2 2 0 00-2-2h-12a2 2 0 00-2 2z"/><path d="M28.5 20H1c-.3 0-.5-.2-.5-.5s.2-.5.5-.5h27.5c.3 0 .5.2.5.5s-.2.5-.5.5zM25 22c-.3 0-.5-.2-.5-.5s.2-.5.5-.5.5.2.5.5-.2.5-.5.5zM13 27c-.3 0-.5-.2-.5-.5v-3c0-.3.2-.5.5-.5s.5.2.5.5v3c0 .3-.2.5-.5.5zM16 27c-.3 0-.5-.2-.5-.5v-3c0-.3.2-.5.5-.5s.5.2.5.5v3c0 .3-.2.5-.5.5zM29 4H1.5c-.3 0-.5-.2-.5-.5s.2-.5.5-.5H29c.3 0 .5.2.5.5s-.2.5-.5.5z"/><g><path d="M15 18l-.4-.2c-.4-.6-4.1-6-4.1-8.3C10.5 7 12.5 5 15 5s4.5 2 4.5 4.5c0 2.3-3.7 7.7-4.1 8.3l-.4.2zm0-12a3.5 3.5 0 00-3.5 3.5c0 1.5 2.2 5.2 3.5 7.1 1.3-1.9 3.5-5.6 3.5-7.1C18.5 7.6 16.9 6 15 6z"/></g><g><path d="M15 11c-.8 0-1.5-.7-1.5-1.5S14.2 8 15 8s1.5.7 1.5 1.5S15.8 11 15 11zm0-2c-.3 0-.5.2-.5.5s.2.5.5.5.5-.2.5-.5-.2-.5-.5-.5z"/></g></svg>