<svg xmlns="http://www.w3.org/2000/svg" viewBox="0 0 128 128"><g id="Layer_2" data-name="Layer 2"><g id="Layer_1-2" data-name="Layer 1"><path d="M41.2 81a2 2 0 001.5 1l39.6 5.8a2 2 0 001.8-1L92.4 72l3.4 3a2 2 0 102.7-3L79 54.5a1.6 1.6 0 00-1.6-.4l-32 5.8a2 2 0 10.3 4l4.7-.8-9.1 16a2 2 0 000 1.8zm14.4-19l21.6-3.8 12.2 11-8.2 14.5-35-5.2z"/><path d="M79.4 69.4a2 2 0 00-2.7.9l-2.4 4.5-12-1.8 1.4-2.7a2 2 0 00-3.4-2l-3 5.2a2 2 0 00.7 2.8 2.2 2.2 0 00.7.3L75.5 79a2 2 0 001.7-1l3-5.8a2 2 0 00-.8-2.8zM113.5 32.6a2 2 0 00-2-2h-4.1L104 19a8 8 0 00-2-14.6V2a2 2 0 00-4 0v2.4A8 8 0 0095.9 19l-3.3 11.6h-4.2a2 2 0 100 4h3L86.3 53a2 2 0 003.9 1.1l5.4-19.4h8.7l3.7 13 1.2 4.2.6 2.2a2 2 0 103.9-1l-.5-1.5-.9-3.3-3.8-13.5h3a2 2 0 002-2zm-16.7-2l3-10.5h.4l3 10.5zm3.2-14.5a4 4 0 114-4 4 4 0 01-4 4z"/><path d="M41.4 55a2 2 0 00-2.7.5L18 86.5a2 2 0 00.5 2.7 2 2 0 00.8.3L74.7 98l6.8-3-58.3-8.9L42 57.7a2 2 0 00-.6-2.8z"/><path d="M.2 82a12.6 12.6 0 0010.2 14.5l50.5 7.5 6.8-3-56.6-8.4a8.6 8.6 0 01-7-10 8 8 0 014.5-5.4 10 10 0 019.2.2 2 2 0 002.6-.7l22.1-33.3 40.9 5.1 1-3.9-39.4-5 8.2-12.3a2 2 0 00-.5-2.8 4.4 4.4 0 00-.7-.2C43 20.9 35.6 27 33 30.9L2.2 77.1a24.3 24.3 0 00-2 4.8zm36-48.8c.3-.3 5-7 12-5.8L18 73.1a14.3 14.3 0 00-7.8-.6zM111 82l16.7-29a2 2 0 00-.7-2.7 2 2 0 00-.8-.3l-9.6-1.2 1 3a5.6 5.6 0 01.1 1.1l5 .7-18 31.1zM102 128a2 2 0 001.9-1.3l14.4-40a2 2 0 00-2.7-2.5l-57.2 25.3a2 2 0 00-1 2.6 2 2 0 001.2 1l42.8 14.8a2 2 0 00.6.1zm-37.3-17L113 89.9l-12.2 33.7z"/><path d="M104.4 98.7a2 2 0 00-2.2-.3l-20.3 9a2 2 0 00-1 2.6 2 2 0 001.2 1l15.1 5.2a2 2 0 002.6-1.2l5-14.2a2 2 0 00-.4-2zm-7.7 13.1l-8.5-2.9 11.3-5zM103.7 47l-7.2-.8-1 3.9 9.3 1.1-1.1-4.1z"/></g></g></svg>