<svg xmlns="http://www.w3.org/2000/svg" viewBox="0 0 32 30"><path style="line-height:normal;text-indent:0;text-align:start;text-decoration-line:none;text-decoration-style:solid;text-decoration-color:#000;text-transform:none;block-progression:tb;white-space:normal;isolation:auto;mix-blend-mode:normal;solid-color:#000;solid-opacity:1" d="M21.3 2v3.8H2.4A2.4 2.4 0 000 8.3v18.4c0 1.4 1.1 2.4 2.4 2.4H4v-3.9h18.9c1.3 0 2.4-1 2.4-2.4V4.3c0-1.3-1-2.4-2.4-2.4h-1.5zm1 1h.5c.8 0 1.4.6 1.4 1.4v16.5c-.4-.3-.9-.6-1.4-.6h-.5V3zm4.4 3.8a.5.5 0 00-.5.5v17.4a.5.5 0 00.5.5h4.8a.5.5 0 00.5-.5V7.3a.5.5 0 00-.5-.5h-4.8zm-24.3 0h19v14.5h1.4c.8 0 1.4.7 1.4 1.5s-.6 1.4-1.4 1.4H2.4c-.5 0-1 .2-1.4.5V8.3c0-.8.6-1.5 1.4-1.5zm24.8 1H31v16.4h-3.8v-1H29v-1h-2v-.9h1v-1h-1v-.9h2v-1h-2v-1h1v-1h-1v-.9h2v-1h-2v-.9h1v-1h-1v-1h2v-1h-2v-.9h1v-1h-1v-1zm-22.8 1a.5.5 0 00-.5.4v12.6a.5.5 0 00.5.5h14.5a.5.5 0 00.5-.5V9.2a.5.5 0 00-.5-.5H8.7v1h2v3h1v-3h6.7v5.8h-2.9v-3.9h-1v3.9h-1.9v1h5.8v4.8h-1V18a.5.5 0 00-.4-.5h-4a.5.5 0 00-.4.5v3.4h-1v-6.7h-1v6.7H5v-3.8h3.8v-1H5V9.7h1.9v-1H4.4zm9.2 9.6h2.9v3h-3v-3zM2.4 25.2H3v2.9h-.5c-.8 0-1.4-.6-1.4-1.4 0-.8.6-1.5 1.4-1.5zm16 1h-8.2a.5.5 0 00-.1 0 .5.5 0 00-.1 0l-3 1.5a.5.5 0 000 .9l3 1.4a.5.5 0 00.3 0h8.1a.5.5 0 00.1 0h1c.8 0 1.6-.7 1.6-1.5v-.8c0-.9-.8-1.6-1.7-1.5h-1zm-.5 1v.4h-7.2v-.4h7.2zm1 0h.5c.4 0 .7.2.7.5v.8c0 .3-.3.5-.7.5H19v-1.8zm-9.2.3V28.8L8.4 28l1.3-.6zm1 1.1h7.2v.5h-7.2v-.5z" color="#000" font-weight="400" font-family="sans-serif" overflow="visible"/></svg>