<svg width="228" height="126" xmlns="http://www.w3.org/2000/svg" viewBox="0 0 228 126" version="1.1" xmlns="http://www.w3.org/2000/svg" xmlns:xlink="http://www.w3.org/1999/xlink">
		<path d="M27.36 65.59c7.54-.36 15.09-.67 22.63-.94l.32 3.64h-.44c-.9-2.11-2.88-3.12-5.93-3l-3.13.12v30.05l-4.31.18V65.59l-3.14.13c-2.97.13-4.95 1.3-5.92 3.5H27l.36-3.63zm26.63 28.9V65h-1.05v-.48l6.93-.24v.49l-2.33.07V82.1a8.72 8.72 0 012.69-3.74 6.86 6.86 0 013.96-1.39 5.1 5.1 0 013.69 1.16 4.62 4.62 0 011.35 3.54v12.36l2.42-.07v.49l-8.3.22v-.43l2.41-.07V80.93a3.78 3.78 0 00-.7-2.5 2.53 2.53 0 00-2.09-.76c-1.57.12-3 1-3.81 2.34a8.75 8.75 0 00-1.63 5.32v9.04l2.33-.07v.48l-8.22.28v-.48L54 94.5zM79.4 80.78c1.44-2.77 3.18-4.18 5.23-4.24.95-.15 1.9.3 2.37 1.13-.2 1.03-.42 2-.61 3.01h-.26a6 6 0 00-.61-2.88c-.28-.54-.84-.9-1.45-.9-1.1.16-2.08.77-2.7 1.7a9.46 9.46 0 00-2 3.8v11.4h2.33v.45c-2.77 0-5.54.12-8.3.19v-.48l2.37-.06V76.93H73.4v-.47l5.97-.15.03 4.46zM93 83.12v1.4a36.3 36.3 0 00.21 4.24c.08 1.03.4 2.03.92 2.92a4.48 4.48 0 004.04 1.77 7.03 7.03 0 006.99-5.67h.52a7.77 7.77 0 01-2.77 4.56 9.47 9.47 0 01-11.63-.78 8.1 8.1 0 01-2.54-6.1 9.57 9.57 0 012.62-6.89 8.4 8.4 0 016.4-2.88 7.51 7.51 0 015.66 1.97c.69.63 1.24 1.4 1.62 2.25.41.96.66 1.99.74 3.03-4.25.02-8.5.06-12.77.13l-.02.05zm0-.48l8.81-.17c0-.97-.08-1.92-.24-2.87a5.05 5.05 0 00-.8-2.21 3.5 3.5 0 00-2.98-1.18 4 4 0 00-3.3 1.45 5.68 5.68 0 00-1.04 2.07c-.27.93-.44 1.9-.48 2.86l.02.05zm18.8.26v1.4c0 1.41.07 2.83.22 4.24.08 1.03.4 2.04.92 2.93A4.5 4.5 0 00117 93.2a6.94 6.94 0 006.98-5.62h.52a7.69 7.69 0 01-2.77 4.59 8.5 8.5 0 01-5.22 1.58 8.62 8.62 0 01-6.37-2.47 8.17 8.17 0 01-2.55-6.12 9.47 9.47 0 012.6-6.83 8.33 8.33 0 016.4-2.82c2.07-.14 4.1.58 5.62 1.98.69.64 1.24 1.4 1.63 2.24.41.97.66 2 .75 3.05-4.26.04-8.52.06-12.78.06v.06zm0-.47h8.82c0-.97-.08-1.93-.24-2.88-.1-.79-.37-1.55-.81-2.21a3.54 3.54 0 00-2.98-1.2 3.99 3.99 0 00-3.3 1.45 5.68 5.68 0 00-1.04 2.07c-.27.88-.43 1.8-.49 2.71l.04.06zm34.38-15.13a12.9 12.9 0 019.98-4.3c3.82.01 7.44 1.67 9.92 4.55a16.36 16.36 0 014 11.4c0 4.68-1.33 8.41-4 11.2a12.78 12.78 0 01-9.92 4.15c-3.83 0-7.48-1.62-10.01-4.47a16.1 16.1 0 01-4-11.3c0-4.63 1.34-8.38 4.03-11.23zm16.9.55c-1.82-2.86-4.13-4.32-6.92-4.37-2.78 0-5.12 1.36-7.02 4.15-2.02 3.29-3.01 7.1-2.86 10.94-.16 3.86.83 7.69 2.86 11 1.9 2.91 4.23 4.39 7.02 4.42 2.79.03 5.1-1.35 6.94-4.14 1.87-2.84 2.8-6.5 2.8-10.97.15-3.87-.82-7.7-2.81-11.03zm20.07 23.84a5.22 5.22 0 01-2.5 1.9c-1.2.53-2.51.79-3.83.73a5.5 5.5 0 01-3.63-1.17 3.63 3.63 0 01-1.35-3.06c0-2 1.16-3.84 2.98-4.72a16.95 16.95 0 018.36-1.59V79.2a2.31 2.31 0 00-.88-1.94 4.67 4.67 0 00-2.72-.67 4.43 4.43 0 00-3.45 1.34 8.59 8.59 0 00-2 3.72h-.2l-.22-2.31a5.42 5.42 0 012.9-2.55 10.8 10.8 0 014.38-.81 7 7 0 014.3 1.28 4.59 4.59 0 011.37 3.79v13h1.31v.49l-6.14-.17v-.44h1.32v-2.24zm0-7.25a10.6 10.6 0 00-5.84 1.11 4.14 4.14 0 00-2.02 3.7 4.12 4.12 0 00.93 2.8c.63.71 1.54 1.12 2.5 1.11 1.16.08 2.3-.3 3.2-1.04a3.61 3.61 0 001.23-2.88v-4.8zm7.5-20.25l7.07.21v.48h-1.14v29.46l2.37.09v.47l-8.3-.26v-.47l2.37.07V64.73l-2.37-.08v-.46zm14.27 30.45l-2.46-.09v.49l8.25.3v-.48h-1.32l-.48-.59-9-10.8 6.37-5.66 3.13.12v-.48l-6.93-.26v.47l3.02.1-8.36 7.26 7.73 9.61.05.01zm9.3-2.52l.22-2.9h.25a9.85 9.85 0 002.61 4.46 6.54 6.54 0 004.37 1.83c.77.05 1.54-.1 2.24-.42a4.35 4.35 0 001.68-1.27c.4-.48.63-1.09.64-1.72a2.82 2.82 0 00-1.12-2.07 8.23 8.23 0 00-3.48-1.57l-1.49-.44a11.28 11.28 0 01-4.73-2.07 5.4 5.4 0 01.44-7.34 6.15 6.15 0 014.47-1.38c1.28.05 2.53.43 3.62 1.1a6.17 6.17 0 012.17 1.95l-.44 2.67h-.22a5.82 5.82 0 00-1.67-3.75 5.25 5.25 0 00-3.68-1.54 4.26 4.26 0 00-3 .89 2.88 2.88 0 00-1.17 2.22c.01 1.05.67 2 1.66 2.38 1.2.53 2.45.93 3.74 1.2l1.31.27c1.51.24 2.91.94 4 2.01a4.8 4.8 0 011.35 3.55 5.45 5.45 0 01-1.84 4.35 6.87 6.87 0 01-5 1.43 8.53 8.53 0 01-3.86-1.14 9.7 9.7 0 01-3.11-2.65l.04-.05z" fill="#484A45"/>
		<path d="M32.45 125.77a36.95 36.95 0 01-3.18-6.17 40.98 40.98 0 01-1.2-3.28l-.24-.84-.14-.42-.1-.32a5.05 5.05 0 00-.73-1.18 19.56 19.56 0 00-4.95-3.96 42.35 42.35 0 00-5.84-2.93l-1.58-.63c-.55-.23-1.04-.49-1.63-.75a34.86 34.86 0 01-3.1-1.7c-2.08-1.21-4-2.7-5.7-4.4-.92-.91-1.72-1.92-2.42-3a10.63 10.63 0 01-1.56-3.95 6.71 6.71 0 01.01-2.1c.1-.72.27-1.42.52-2.1.5-1.26 1.2-2.44 2.07-3.47 1.6-2.1 3.5-3.39 4.82-5 1.3-1.52 2.17-3.38 2.5-5.38A15.23 15.23 0 009 65.43a26.2 26.2 0 00-1.36-2.75c-.54-.83-1.12-1.79-1.75-2.7-.63-.93-1.3-1.9-1.92-3.04a28.38 28.38 0 01-2.67-6.83c-.72-2.54-.7-5.25.05-7.78a7.54 7.54 0 012.5-3.45 9.29 9.29 0 013.62-1.67 8.6 8.6 0 013.94.08c1.2.31 2.35.8 3.42 1.42 2.06 1.15 3.86 2.57 5.73 3.71 1.7 1.2 3.72 1.86 5.8 1.87a2.68 2.68 0 002.15-1.3c.45-.87.67-1.84.62-2.81a19.7 19.7 0 00-1.3-6.29c-.37-.92-.88-1.98-1.33-3.02l-1.33-3.14a51.1 51.1 0 01-2.13-6.7c-.6-2.4-.83-4.88-.67-7.34.12-1.33.47-2.62 1.03-3.83a8.02 8.02 0 012.63-3.14 9.52 9.52 0 013.58-1.46 6.2 6.2 0 012.12 0c.74.12 1.44.38 2.07.79a17.4 17.4 0 012.7 2.5c.7.74 1.49 1.4 2.34 1.95.85.54 1.78.93 2.76 1.17a6.7 6.7 0 002.9.16 7.73 7.73 0 004.63-3.42c.64-.88 1.12-1.8 1.87-2.86.61-.81 1.15-1.85 1.95-2.86A6.69 6.69 0 0156.3.24a6.38 6.38 0 014.25.3 5.33 5.33 0 012.9 3.55 9.23 9.23 0 01-.1 4.2V8.52c-.2.51-.32 1.05-.35 1.6-.04.4.05.81.25 1.17.1.15.24.28.4.38a4.38 4.38 0 002.4.59 6.53 6.53 0 001.8-.3c.78-.3 1.59-.48 2.41-.56.94-.07 1.87.1 2.72.5.23.13.45.26.66.42A7.38 7.38 0 0175 13.89a7.71 7.71 0 01.9 5.07 11.62 11.62 0 01-1.74 4.56 17.3 17.3 0 01-3.1 3.61c-1.16 1.05-2.4 1.9-3.5 2.79-1.02.7-1.8 1.7-2.27 2.85-.27 1.2-.19 2.45.25 3.6a14.84 14.84 0 001.83 3.58c.78 1.14 1.68 2.28 2.53 3.57a14.23 14.23 0 012.07 4.44c.41 1.66.38 3.4-.07 5.05a19.73 19.73 0 01-4.73 7.94.48.48 0 01-.67 0 .5.5 0 01-.1-.59 25.9 25.9 0 003.1-7.86 7.78 7.78 0 00-.26-3.72 13.43 13.43 0 00-1.84-3.47c-1.59-2.32-3.55-4.94-4.36-8.17a9.13 9.13 0 010-5.15c.3-.85.76-1.64 1.36-2.31.54-.6 1.12-1.14 1.74-1.64 1.22-.94 2.39-1.75 3.41-2.67a14.84 14.84 0 002.66-3.14 9.25 9.25 0 001.44-3.63 5.3 5.3 0 00-.64-3.49 4.4 4.4 0 00-.54-.69c-.14-.16-.32-.3-.52-.4a3.06 3.06 0 00-1.54-.23c-.61.05-1.21.18-1.79.4-.8.28-1.64.46-2.49.54-.88.07-1.77 0-2.62-.2-.46-.13-.9-.3-1.32-.52a4.34 4.34 0 01-1.27-1.04c-.65-.84-1-1.88-.98-2.95.01-.94.19-1.86.53-2.73v.15a5.9 5.9 0 00.12-2.6 2.1 2.1 0 00-1.2-1.6 4.21 4.21 0 00-2.34-.33c-.83.23-1.55.73-2.07 1.42-.65.74-1.2 1.72-1.98 2.7-.58.77-1.23 1.84-1.97 2.77-.74 1-1.61 1.89-2.58 2.66a8.08 8.08 0 01-3.53 1.6c-1.27.19-2.56.12-3.8-.2a11.2 11.2 0 01-3.47-1.37c-1.04-.65-2-1.43-2.85-2.31-.68-.79-1.46-1.5-2.3-2.1-.72-.4-1.56-.5-2.34-.27-.9.22-1.76.62-2.5 1.2a6.33 6.33 0 00-2.18 4.9c-.02 2.13.25 4.25.8 6.3a63.72 63.72 0 002 6.28l1.16 3.15c.4 1.04.77 2.1 1.11 3.36.62 2.35.85 4.8.69 7.22a8.3 8.3 0 01-1.2 3.81 4.63 4.63 0 01-3.5 2.03 12 12 0 01-6.9-1.94c-2.06-1.14-3.9-2.42-5.81-3.37a7.79 7.79 0 00-5.65-.8c-.87.27-1.69.72-2.38 1.32a4.29 4.29 0 00-1.27 2.1c-.38 1.9-.21 3.87.47 5.68.66 2 1.55 3.93 2.64 5.74 1.03 1.66 2.55 3.54 3.8 5.62a19.25 19.25 0 012.7 7.07c.4 2.55.2 5.17-.58 7.63a15.3 15.3 0 01-3.9 6.5c-.87.87-1.79 1.61-2.61 2.36-.82.64-1.55 1.4-2.15 2.25a5.3 5.3 0 00-.78 2.68v1.42c.01.4.06.8.15 1.2a9.7 9.7 0 002.68 4.78 31.8 31.8 0 004.82 4.09 41.52 41.52 0 004.14 2.5l1.51.75a45.25 45.25 0 015.98 3.63 21.83 21.83 0 015.17 4.96c.39.55.7 1.15.9 1.8l.13.5.09.41.17.82a44.47 44.47 0 003.38 9.51c.09.16.09.34 0 .49a.47.47 0 01-.83 0h.05z" fill="#91938B"/>
		<path d="M68 122.43v-8.88h1.8c.68-.03 1.37.06 2.03.26.54.18 1.04.48 1.46.88a4.35 4.35 0 011.32 3.3 4.31 4.31 0 01-2.83 4.2c-.65.18-1.33.26-2 .24H68zm1.3-1.26h.57c.49.01.98-.05 1.45-.19.4-.14.75-.35 1.06-.64a3.37 3.37 0 000-4.72 3.5 3.5 0 00-2.5-.8h-.57l-.01 6.35zm14.6-6.36h-3.43v2.13h3.34v1.26h-3.34v2.97h3.43v1.26h-4.7v-8.88h4.72l-.02 1.26zm9.5.06l-1.07.65a1.82 1.82 0 00-.56-.7c-.22-.13-.46-.2-.71-.18-.33-.02-.65.1-.9.32-.22.19-.35.48-.35.78 0 .43.31.78.93 1.1l.86.36c.59.23 1.11.6 1.52 1.1.32.45.5 1 .48 1.55.02.76-.27 1.5-.8 2.03-.52.53-1.22.82-1.96.8a2.57 2.57 0 01-1.83-.68c-.5-.52-.82-1.2-.9-1.93l1.31-.3c.01.39.12.77.3 1.1.28.38.72.6 1.18.58.37 0 .73-.15 1-.42.27-.3.42-.7.4-1.1a1.38 1.38 0 00-.67-1.22 4.32 4.32 0 00-.55-.3l-.83-.35a2.45 2.45 0 01-1.75-2.2c0-.64.26-1.25.73-1.68.5-.45 1.16-.7 1.84-.67.95-.03 1.85.5 2.32 1.36zm6.01-1.32v8.88h-1.3v-8.88h1.3zm9.4 4.25h3.54v.3c0 .6-.07 1.2-.23 1.77-.16.5-.42.95-.75 1.33a3.82 3.82 0 01-3.03 1.4 4.1 4.1 0 01-3.07-1.35 4.75 4.75 0 01-.94-5.04 4.45 4.45 0 016-2.41 5.7 5.7 0 011.64 1.38l-.93.91a3.1 3.1 0 00-2.57-1.45 3 3 0 00-2.27.98c-.61.63-.95 1.5-.92 2.39-.01.94.38 1.83 1.06 2.44.57.57 1.33.89 2.12.89.64 0 1.25-.24 1.72-.67.48-.4.78-.97.85-1.6h-2.12l-.1-1.27zm8.1 4.63v-9.5l6.25 6.76v-6.17h1.29V123l-6.24-6.75v6.21l-1.3-.03zm55.71-8.55v1.58a3.49 3.49 0 00-2.31-.97 2.91 2.91 0 00-2.22.98c-.6.64-.93 1.5-.91 2.4a3.3 3.3 0 00.9 2.35c.59.63 1.4.98 2.24.96a2.8 2.8 0 001.7-.54c.22-.14.41-.3.6-.46v1.6a4.43 4.43 0 01-6.74-3.9 4.64 4.64 0 011.06-3.02 4.18 4.18 0 013.44-1.63c.8 0 1.56.22 2.24.65zm4.1 3.92c0-1.22.47-2.38 1.33-3.22a4.25 4.25 0 013.18-1.34 4.42 4.42 0 014.16 2.81c.7 1.73.31 3.74-.98 5.05a4.41 4.41 0 01-6.17.15 4.48 4.48 0 01-1.52-3.45zm1.3 0c-.02.9.32 1.79.96 2.41.57.61 1.36.96 2.19.95.85.02 1.67-.33 2.27-.96a3.54 3.54 0 000-4.76 3.1 3.1 0 00-4.5 0 3.25 3.25 0 00-.92 2.38v-.02zm9.45 3.81c0-.43.35-.79.77-.8.2 0 .4.1.55.25.24.26.28.65.1.96a.75.75 0 01-.86.35.79.79 0 01-.56-.76zM145.21 111l-5.06 5.19v3.8h1.32v-3.23l3.74-3.84 3.74 3.84v4.82h-8.8V123h10.12v-6.75L145.2 111z" fill="#484A45"/>
</svg>