<svg xmlns="http://www.w3.org/2000/svg" viewBox="0 0 217.7 120.2"><defs><style>.cls-1{fill:#fff}</style></defs><g id="Layer_2" data-name="Layer 2"><g id="Layer_1-2" data-name="Layer 1"><path class="cls-1" d="M25.8 62.4l21.6-1 .3 3.6h-.4q-1.3-3.1-5.7-3l-3 .2v29l-4 .2v-29h-3c-3 .2-4.8 1.3-5.8 3.5h-.4zM51.2 90.3V61.8h-1v-.5l6.7-.2v.5h-2.3v16.7a8.4 8.4 0 012.6-3.6 6.5 6.5 0 013.8-1.4 4.8 4.8 0 013.5 1.2 4.5 4.5 0 011.3 3.4v11.9h2.3v.4l-7.9.2V90h2.3V77.1a3.7 3.7 0 00-.7-2.5 2.4 2.4 0 00-2-.7 4.7 4.7 0 00-3.6 2.3 8.5 8.5 0 00-1.6 5.1v8.7H57v.4l-7.9.3v-.5zM75.6 77q2-4 5-4a2.2 2.2 0 012.2 1l-.6 3H82a5.8 5.8 0 00-.6-2.9 1.6 1.6 0 00-1.4-.8 3.8 3.8 0 00-2.6 1.6 9.2 9.2 0 00-1.9 3.7v11h2.3v.4l-8 .2v-.5h2.3V73.3h-2.3v-.5l5.7-.1zM88.6 79.2v1.4a35.3 35.3 0 00.2 4 6.6 6.6 0 00.9 2.9 4.3 4.3 0 003.8 1.7 6.7 6.7 0 004.3-1.5 7.3 7.3 0 002.4-4h.5a7.5 7.5 0 01-2.6 4.4 9 9 0 01-11.2-.7 7.8 7.8 0 01-2.4-6A9.3 9.3 0 0187 75a8 8 0 016.1-2.8 7.2 7.2 0 015.4 1.9 6.8 6.8 0 011.6 2.2 9.4 9.4 0 01.7 2.9l-12.2.1zm0-.4l8.4-.2a17.3 17.3 0 00-.2-2.7 4.9 4.9 0 00-.8-2.2 3.3 3.3 0 00-2.9-1.1A3.8 3.8 0 0090 74a5.5 5.5 0 00-1 2 11.8 11.8 0 00-.5 2.8zM106.6 79v1.3a35.5 35.5 0 00.2 4.1 6.7 6.7 0 00.8 2.9 4.3 4.3 0 004 1.7 6.6 6.6 0 004.2-1.4 7.2 7.2 0 002.4-4h.5A7.4 7.4 0 01116 88a8 8 0 01-5 1.5 8.2 8.2 0 01-6-2.4 8 8 0 01-2.5-5.9 9.2 9.2 0 012.5-6.5 8 8 0 016.1-2.8 7.2 7.2 0 015.4 2 6.9 6.9 0 011.6 2.1 9.5 9.5 0 01.7 3h-12.2zm0-.5h8.4a17.4 17.4 0 00-.2-2.7 5 5 0 00-.8-2.2 3.4 3.4 0 00-2.9-1.1 3.8 3.8 0 00-3.1 1.4 5.5 5.5 0 00-1 2 11.5 11.5 0 00-.5 2.6zM139.4 64a12.3 12.3 0 019.6-4.1 12.5 12.5 0 019.5 4.4 15.9 15.9 0 013.8 11q0 6.7-3.8 10.8a12.2 12.2 0 01-9.5 4 12.8 12.8 0 01-9.6-4.3 15.6 15.6 0 01-3.8-11q0-6.7 3.8-10.8zm16.2.5q-2.6-4.1-6.6-4.2c-2.7 0-4.9 1.3-6.7 4a19 19 0 00-2.8 10.6 19 19 0 002.8 10.6q2.7 4.2 6.7 4.3t6.6-4q2.7-4.1 2.7-10.6a19.4 19.4 0 00-2.7-10.7zM174.8 87.5a5 5 0 01-2.4 1.8 8 8 0 01-3.6.7 5.2 5.2 0 01-3.5-1 3.5 3.5 0 01-1.3-3 5 5 0 012.9-4.6 16.1 16.1 0 018-1.5v-4.4a2.2 2.2 0 00-.9-1.9 4.4 4.4 0 00-2.6-.6 4.2 4.2 0 00-3.3 1.3 8.3 8.3 0 00-1.9 3.5h-.2l-.2-2.2a5.2 5.2 0 012.8-2.4 10.3 10.3 0 014.2-.8 6.7 6.7 0 014 1.2 4.5 4.5 0 011.4 3.7v12.5h1.2v.5l-5.8-.2v-.4h1.2zm0-7a10 10 0 00-5.6 1 4 4 0 00-1.9 3.6 4 4 0 00.9 2.8 3.2 3.2 0 002.4 1 4.3 4.3 0 003-1 3.5 3.5 0 001.2-2.8zM182 61l6.8.2v.5h-1.1V90h2.2v.5l-7.9-.2v-.5l2.3.1V61.5H182zm13.7 29.4l-2.4-.1v.5l7.9.3v-.5h-1.3l-.4-.6-8.6-10.4 6-5.4h3v-.4l-6.6-.2v.4l3 .1-8 7 7.3 9.3zM204.5 88l.2-2.8h.3a9.5 9.5 0 002.5 4.3 6.2 6.2 0 004.2 1.8 4.5 4.5 0 002.1-.4 4.2 4.2 0 001.6-1.3 2.6 2.6 0 00.6-1.6 2.7 2.7 0 00-1-2 7.8 7.8 0 00-3.4-1.5l-1.4-.5a10.8 10.8 0 01-4.5-2 5.2 5.2 0 01.4-7 5.8 5.8 0 014.3-1.4 7 7 0 013.4 1 6 6 0 012.1 2l-.4 2.5h-.2a5.6 5.6 0 00-1.6-3.6 5 5 0 00-3.5-1.5 4 4 0 00-2.9.9 2.8 2.8 0 00-1.1 2.1 2.5 2.5 0 001.6 2.3 18 18 0 003.5 1.2l1.3.2a6.9 6.9 0 013.8 2 4.7 4.7 0 011.3 3.4 5.3 5.3 0 01-1.7 4.2 6.5 6.5 0 01-4.8 1.4 8.1 8.1 0 01-3.7-1.1 9.3 9.3 0 01-3-2.6z"/><path class="cls-1" d="M31.4 120a35 35 0 01-3-5.9c-.5-1-.9-2-1.2-3.1l-.3-.8-.1-.4-.1-.3a4.8 4.8 0 00-.7-1.1 18.9 18.9 0 00-4.8-3.8 41.2 41.2 0 00-5.7-2.8l-1.5-.6-1.6-.7c-1-.5-2-1-3-1.7A27 27 0 014 94.6a16.9 16.9 0 01-2.3-2.8A10 10 0 010 88a6.3 6.3 0 01-.1-1 7.8 7.8 0 010-1 9 9 0 01.6-2 11.7 11.7 0 012-3.3c1.5-2 3.4-3.2 4.7-4.8a10.6 10.6 0 002.4-5.1 14.3 14.3 0 00-.1-5.7 18 18 0 00-.9-2.7 24.9 24.9 0 00-1.3-2.6l-1.7-2.6c-.6-.9-1.3-1.8-1.9-2.9a26.9 26.9 0 01-2.5-6.5 13 13 0 010-7.4A7.2 7.2 0 013.7 37a9 9 0 013.5-1.6 8.4 8.4 0 013.8 0 13.4 13.4 0 013.3 1.4c2 1.1 3.8 2.5 5.6 3.6a9.8 9.8 0 005.6 1.7 2.6 2.6 0 002-1.2 5.1 5.1 0 00.7-2.7 18.6 18.6 0 00-1.3-6l-1.3-2.9-1.3-3a48.3 48.3 0 01-2-6.4 22 22 0 01-.7-7 10.6 10.6 0 011-3.6 7.7 7.7 0 012.6-3A9.3 9.3 0 0128.6 5a6 6 0 012.1 0 5.2 5.2 0 012 .8A16.8 16.8 0 0135.3 8a12.4 12.4 0 002.3 1.9 9 9 0 002.6 1.1 6.6 6.6 0 002.8.2A7.5 7.5 0 0047.5 8c.7-.8 1.1-1.7 1.8-2.7l2-2.8A6.5 6.5 0 0154.4.2a5.6 5.6 0 012.1-.2 6.2 6.2 0 012 .5 4.7 4.7 0 011.8 1.4 5 5 0 011 2 7.4 7.4 0 01.2 2 8.7 8.7 0 01-.3 2V8a4.8 4.8 0 00-.3 1.5 2 2 0 00.2 1.1 1.1 1.1 0 00.4.4 3 3 0 00.7.3 4.3 4.3 0 001.6.3 6.4 6.4 0 001.8-.3 8.7 8.7 0 012.3-.5 5.2 5.2 0 012.6.4 4.8 4.8 0 01.7.4 5.2 5.2 0 01.5.5 7 7 0 01.8 1 7.3 7.3 0 01.9 4.9 11 11 0 01-1.7 4.3 16.6 16.6 0 01-3 3.5l-3.4 2.6a6 6 0 00-2.2 2.8 5.8 5.8 0 00.2 3.4 14 14 0 001.8 3.4l2.4 3.4a13.5 13.5 0 012 4.3 9.4 9.4 0 010 4.8A18.8 18.8 0 0165 58a.5.5 0 01-.7 0 .5.5 0 010-.5 24.5 24.5 0 003-7.5 7.3 7.3 0 00-.3-3.6 12.8 12.8 0 00-1.8-3.3c-1.5-2.2-3.4-4.7-4.2-7.8a8.6 8.6 0 010-4.9 6.3 6.3 0 011.3-2.2 13.8 13.8 0 011.7-1.6c1.2-.9 2.3-1.6 3.3-2.5a14.2 14.2 0 002.6-3 8.8 8.8 0 001.4-3.5 5 5 0 00-.7-3.3 4.2 4.2 0 00-.5-.7 1.7 1.7 0 00-.5-.3 3 3 0 00-1.5-.3 6.7 6.7 0 00-1.7.4 9.6 9.6 0 01-2.4.5 8 8 0 01-2.6-.2 6.2 6.2 0 01-1.2-.5 4.2 4.2 0 01-1.3-1 4.4 4.4 0 01-.9-2.8 7.3 7.3 0 01.5-2.6v.2a5.5 5.5 0 00.1-2.5A2 2 0 0057.5 3a4.1 4.1 0 00-1.2-.4 3 3 0 00-1.1 0 3.8 3.8 0 00-2 1.4l-2 2.6-1.8 2.6a14 14 0 01-2.5 2.6 7.9 7.9 0 01-3.4 1.5 9.4 9.4 0 01-3.7-.2 11 11 0 01-3.4-1.3 14.5 14.5 0 01-2.7-2.2 12.8 12.8 0 00-2.3-2 3 3 0 00-2.2-.3 6.6 6.6 0 00-2.5 1.2 6 6 0 00-2 4.7 21.5 21.5 0 00.7 6 60.2 60.2 0 002 6l1 3c.5 1 .8 2 1.2 3.2a21.2 21.2 0 01.6 6.9 7.8 7.8 0 01-1.1 3.6 4.5 4.5 0 01-1.5 1.4 4.7 4.7 0 01-2 .5 11.7 11.7 0 01-6.6-1.8c-2-1.1-3.8-2.3-5.6-3.2a7.6 7.6 0 00-5.5-.8 6.5 6.5 0 00-2.3 1.3 4 4 0 00-1.2 2 9.8 9.8 0 00.4 5.4 27 27 0 002.6 5.5c1 1.5 2.5 3.3 3.7 5.3a18.2 18.2 0 012.6 6.8 15.8 15.8 0 01-.6 7.3 14.6 14.6 0 01-3.8 6.2L6.8 80a10.5 10.5 0 00-2 2.2 5 5 0 00-.8 2.5v1.4a6.3 6.3 0 00.1 1.1A9.2 9.2 0 006.7 92a30.7 30.7 0 004.7 3.9 40.3 40.3 0 004 2.4l1.5.7a44 44 0 015.7 3.5 21 21 0 015 4.7 6.7 6.7 0 011 1.7v.5l.1.4.2.7c.2 1 .5 2.1.9 3.1a42 42 0 002.4 6 .5.5 0 01-.8.5zM65.4 114.5v-8h1.7a6.2 6.2 0 012 .2 3.7 3.7 0 011.3.8 3.9 3.9 0 011.3 3 4 4 0 01-2.7 3.8 6.2 6.2 0 01-1.9.2zm1.3-1.2h.5a4.8 4.8 0 001.4-.1 3 3 0 001-.6 3 3 0 000-4.3 3.4 3.4 0 00-2.4-.7h-.5zM80.4 107.6h-3.2v1.9h3.1v1.1h-3.1v2.7h3.2v1.2H76v-8h4.4zM89.4 107.6l-1 .6a1.7 1.7 0 00-.6-.6 1.2 1.2 0 00-.6-.2 1.2 1.2 0 00-.9.3 1 1 0 00-.3.7c0 .4.3.7.9 1l.8.3a3.4 3.4 0 011.4 1 2.2 2.2 0 01.5 1.4 2.5 2.5 0 01-.8 1.9 2.5 2.5 0 01-1.8.7 2.5 2.5 0 01-1.8-.6 2.9 2.9 0 01-.8-1.8l1.2-.2a2.1 2.1 0 00.3 1 1.3 1.3 0 001.1.5 1.3 1.3 0 001-.4 1.3 1.3 0 00.3-1 1.2 1.2 0 000-.4 1 1 0 00-.2-.4 1.6 1.6 0 00-.4-.3 4.1 4.1 0 00-.5-.3l-.8-.3a2.2 2.2 0 01-1.6-2 2 2 0 01.6-1.5 2.5 2.5 0 011.8-.6 2.4 2.4 0 012.2 1.2zM95 106.4v8h-1.2v-8zM103.9 110.3h3.3v.3a5.6 5.6 0 01-.2 1.6 3.5 3.5 0 01-.7 1.2 3.7 3.7 0 01-2.9 1.2 4 4 0 01-2.9-1.2 4.2 4.2 0 013-7.1 4 4 0 011.8.3 5.3 5.3 0 011.6 1.3l-1 .8a3 3 0 00-2.3-1.3 2.9 2.9 0 00-2.2.9 3 3 0 00-.8 2.2 2.9 2.9 0 001 2.2 2.9 2.9 0 002 .8 2.5 2.5 0 001.6-.6 2.2 2.2 0 00.8-1.5h-2zM111.5 114.5v-8.6l5.9 6.1v-5.6h1.2v8.6l-5.9-6.1v5.6zM164 106.7v1.5a3.4 3.4 0 00-2.2-1 2.8 2.8 0 00-2 1 3 3 0 00-1 2.1 3 3 0 001 2.2 2.8 2.8 0 002 .9 2.7 2.7 0 001.1-.2 3 3 0 00.5-.3 4.8 4.8 0 00.6-.5v1.5a4.3 4.3 0 01-2.2.6 4 4 0 01-3-1.2 4 4 0 01-1.1-3 4.1 4.1 0 011-2.7 4 4 0 013.2-1.5 4.1 4.1 0 012.1.6zM167.9 110.3a4 4 0 011.2-3 4 4 0 013-1.2 4.2 4.2 0 013 7.2 4.3 4.3 0 01-5.8.1 4 4 0 01-1.4-3.1zm1.2 0a2.9 2.9 0 00.9 2.2 2.8 2.8 0 002 .8 3 3 0 002.2-.8 3.1 3.1 0 000-4.4 3 3 0 00-4.2 0 2.9 2.9 0 00-1 2.2zM178 113.8a.7.7 0 01.7-.8.7.7 0 01.5.3.7.7 0 11-1.2.5zM138.2 104.1l-4.8 4.7v3.5h1.3v-3l3.5-3.4 3.5 3.5v4.3h-8.3v1.3h9.5v-6.2l-4.7-4.7z"/></g></g></svg>